<?xml version="1.0" encoding="UTF-8"?>
<svg version="1.1" xmlns="http://www.w3.org/2000/svg" width="600" height="400">
<path d="M0 0 C9.24 0 18.48 0 28 0 C34 3 40 6 46 9 C47.77671242 9.60808608 49.56844419 10.17482876 51.375 10.6875 C52.90125 11.120625 54.4275 11.55375 56 12 C59.3 12 62.6 12 66 12 C70.08963819 9.71461395 73.46362104 7.04293074 77 4 C77.99 3.67 78.98 3.34 80 3 C84.62 3 89.24 3 94 3 C98.95 4.98 98.95 4.98 104 7 C115.46709649 15.33970654 115.46709649 15.33970654 120.05078125 20.57421875 C123.15866872 24.44195046 125.68920322 28.61449404 128 33 C128.69089793 34.65676862 129.36481475 36.32108311 130 38 C130 40.31 130 42.62 130 45 C125.71 49.62 121.42 54.24 117 59 C116.34 60.65 115.68 62.3 115 64 C116.32 68.29 117.64 72.58 119 77 C119 81.62 119 86.24 119 91 C114.71 100.24 110.42 109.48 106 119 C104.35 120.65 102.7 122.3 101 124 C98.36 124.33 95.72 124.66 93 125 C92.01 126.98 92.01 126.98 91 129 C89.02 131.31 87.04 133.62 85 136 C82.36 136.99 79.72 137.98 77 139 C73.37 138.67 69.74 138.34 66 138 C64.02 139.32 62.04 140.64 60 142 C59.01 142.33 58.02 142.66 57 143 C51.39 143 45.78 143 40 143 C36.04 144.98 36.04 144.98 32 147 C30.68 147.33 29.36 147.66 28 148 C23.71 148 19.42 148 15 148 C9.17496571 145.96474705 4.3096807 144.18580842 -1 141 C-9 131 -9 131 -10.375 128.4375 C-12.02858414 124.93953355 -13.03009521 121.73040305 -14 118 C-16.64 118 -19.28 118 -22 118 C-22.66 117.34 -23.32 116.68 -24 116 C-24 87.95 -24 59.9 -24 31 C-25.32 28.36 -26.64 25.72 -28 23 C-27.67 20.69 -27.34 18.38 -27 16 C-26.01 14.35 -25.02 12.7 -24 11 C-21.03 9.02 -18.06 7.04 -15 5 C-10.05 3.35 -5.1 1.7 0 0 Z M2.625 4.5 C1.79355469 4.64308594 0.96210938 4.78617187 0.10546875 4.93359375 C-1.93045917 5.28461581 -3.96534113 5.64169529 -6 6 C-12.93 9.465 -12.93 9.465 -20 13 C-21.485 15.475 -21.485 15.475 -23 18 C-22.67 20.97 -22.34 23.94 -22 27 C-20.68 28.32 -19.36 29.64 -18 31 C-12.54239568 32.26148818 -12.54239568 32.26148818 -5 32 C-2.69 31.34 -0.38 30.68 2 30 C3.65 30.33 5.3 30.66 7 31 C9.64 32.98 12.28 34.96 15 37 C25 51 25 51 29 60 C32 74 32 74 32 86 C30.68 91.94 29.36 97.88 28 104 C26.35 106.97 24.7 109.94 23 113 C23 113.66 23 114.32 23 115 C22.01 115.33 21.02 115.66 20 116 C20 116.66 20 117.32 20 118 C10.76 118 1.52 118 -8 118 C-7.67 120.64 -7.34 123.28 -7 126 C-5.02 129.465 -5.02 129.465 -3 133 C-0.69 134.98 1.62 136.96 4 139 C5.98 139.99 7.96 140.98 10 142 C12.97 142.66 15.94 143.32 19 144 C28.98426708 143.37234576 28.98426708 143.37234576 38 140 C44.20300902 132.24623872 49.88184885 124.1558646 55.57519531 116.02636719 C57.69952558 113.00512983 59.8488344 110.00217617 62 107 C62.495 105.515 62.495 105.515 63 104 C63.66 104 64.32 104 65 104 C62.74572359 108.78112872 60.08012377 113.07580832 57.125 117.4375 C56.70347656 118.06720703 56.28195312 118.69691406 55.84765625 119.34570312 C52.97462854 123.62010063 50.00924158 127.8204978 47 132 C47 133.98 47 135.96 47 138 C49.31 138.33 51.62 138.66 54 139 C56.97 138.01 59.94 137.02 63 136 C68.37397191 129.93705733 73.17821985 123.50639496 78 117 C79.18633518 115.41579372 80.37365138 113.83232097 81.5625 112.25 C82.03816406 111.61578125 82.51382813 110.9815625 83.00390625 110.328125 C83.33261719 109.88984375 83.66132812 109.4515625 84 109 C84.33 109.33 84.66 109.66 85 110 C84.50371094 110.67804688 84.00742187 111.35609375 83.49609375 112.0546875 C78.92327143 118.31954085 74.42281169 124.62838691 70 131 C70.33 132.32 70.66 133.64 71 135 C73.31 135 75.62 135 78 135 C80.31 133.35 82.62 131.7 85 130 C85 129.34 85 128.68 85 128 C85.66 128 86.32 128 87 128 C87.53109375 127.13117188 88.0621875 126.26234375 88.609375 125.3671875 C89.3228556 124.20308757 90.03640073 123.03902719 90.75 121.875 C91.09804688 121.30523437 91.44609375 120.73546875 91.8046875 120.1484375 C94.12120215 116.37337658 96.5225451 112.67154352 99 109 C99 108.01 99 107.02 99 106 C99.66 106 100.32 106 101 106 C99.55049545 109.7910119 97.84827434 113.3874638 96 117 C96 117.99 96 118.98 96 120 C97.98 119.34 99.96 118.68 102 118 C102.44730469 117.03320312 102.89460938 116.06640625 103.35546875 115.0703125 C106.79489412 107.65652479 110.28291103 100.28001296 114 93 C114.33 91.68 114.66 90.36 115 89 C115 85.7 115 82.4 115 79 C113.02 73.39 111.04 67.78 109 62 C107.02 59.36 105.04 56.72 103 54 C101.35 52.68 99.7 51.36 98 50 C96.02 49.505 96.02 49.505 94 49 C94 48.01 94 47.02 94 46 C95.65 46.33 97.3 46.66 99 47 C103.455 50.96 103.455 50.96 108 55 C112.56747912 51.40432495 116.25691326 47.63837773 119.9375 43.125 C122.73574472 39.73022952 122.73574472 39.73022952 125 36 C124.34 35.34 123.68 34.68 123 34 C119.04 38.29 115.08 42.58 111 47 C110.34 48.32 109.68 49.64 109 51 C107.35 49.35 105.7 47.7 104 46 C104.66 44.35 105.32 42.7 106 41 C109.3 37.7 112.6 34.4 116 31 C116.99 29.35 117.98 27.7 119 26 C118.01 25.01 117.02 24.02 116 23 C115.67 23.99 115.34 24.98 115 26 C114.34 26 113.68 26 113 26 C112.34644531 26.76183594 112.34644531 26.76183594 111.6796875 27.5390625 C107.93477405 31.86759882 104.09685382 36.00306944 100 40 C98.02 39.34 96.04 38.68 94 38 C94.33 36.02 94.66 34.04 95 32 C95.639375 31.38125 96.27875 30.7625 96.9375 30.125 C101.14668062 25.92798464 105.04656399 21.43577243 109 17 C107.02 15.02 107.02 15.02 105 13 C104.278125 13.886875 103.55625 14.77375 102.8125 15.6875 C100.35985566 18.62929532 97.74310031 21.32380458 95 24 C93.8945243 25.10285608 92.79037146 26.20703964 91.6875 27.3125 C90.3571875 28.6428125 90.3571875 28.6428125 89 30 C89 30.66 89 31.32 89 32 C88.34 32 87.68 32 87 32 C87 31.34 87 30.68 87 30 C85.68 29.01 84.36 28.02 83 27 C83.33 25.02 83.66 23.04 84 21 C84.66 21 85.32 21 86 21 C89.465 17.04 89.465 17.04 93 13 C93.66 11.68 94.32 10.36 95 9 C95.66 8.67 96.32 8.34 97 8 C95.68 7.67 94.36 7.34 93 7 C88.4103663 11.48713568 84.01145421 15.98568224 80 21 C79.01 21 78.02 21 77 21 C78.20381448 23.49361571 79.45428722 25.68143083 81 28 C79.515 27.505 79.515 27.505 78 27 C76.35 25.02 74.7 23.04 73 21 C70.36 19.68 67.72 18.36 65 17 C59.69235173 16.02227532 54.36891879 15.49869404 49 15 C42.25032192 12.39216983 36.19500008 8.71293108 30 5 C28.12612523 4.6603981 26.25083303 4.32861309 24.375 4 C22.80878906 3.7215625 22.80878906 3.7215625 21.2109375 3.4375 C14.75779249 2.55823937 8.97665366 3.37554457 2.625 4.5 Z M80 7 C76.535 9.97 76.535 9.97 73 13 C73 14.65 73 16.3 73 18 C73.8353125 16.948125 73.8353125 16.948125 74.6875 15.875 C77.09124732 12.88655739 79.53810432 9.94059762 82 7 C81.34 7 80.68 7 80 7 Z M2 34 C0.68 34.33 -0.64 34.66 -2 35 C-1.25180049 39.33955713 -0.30727657 43.23000107 1.328125 47.328125 C2.36760244 49.71157327 3.41460355 52.0917531 4.46875 54.46875 C6.53613368 59.23638991 8.2973407 64.09233496 10 69 C10.33 69 10.66 69 11 69 C11 59.1 11 49.2 11 39 C9.02 37.35 7.04 35.7 5 34 C4.01 34 3.02 34 2 34 Z M26 65 C26 75.23 26 85.46 26 96 C26.66 94.68 27.32 93.36 28 92 C28 83.75 28 75.5 28 67 C27.34 66.34 26.68 65.68 26 65 Z M-8 70 C-8 84.85 -8 99.7 -8 115 C-2.06 115 3.88 115 10 115 C3.73798446 98.04494029 3.73798446 98.04494029 -2.9375 81.25 C-3.36011108 80.22531616 -3.36011108 80.22531616 -3.79125977 79.17993164 C-5.09554535 76.05339442 -6.48335659 73.03328682 -8 70 Z " fill="#FDFDFD" transform="translate(470,111)"/>
<path d="M0 0 C8.91 0 17.82 0 27 0 C33.17262452 1.85178736 39.03247521 3.67929592 45 6 C47.64 7.98 50.28 9.96 53 12 C53.99 13.98 54.98 15.96 56 18 C56 19.98 56 21.96 56 24 C55.01 25.98 54.02 27.96 53 30 C52.67 58.71 52.34 87.42 52 117 C47.545 117.495 47.545 117.495 43 118 C42.34 117.67 41.68 117.34 41 117 C40.34 120.3 39.68 123.6 39 127 C36.525 131.455 36.525 131.455 34 136 C33.34 136 32.68 136 32 136 C32 136.66 32 137.32 32 138 C31.34 138 30.68 138 30 138 C29.67 138.99 29.34 139.98 29 141 C26.03 142.65 23.06 144.3 20 146 C16.535 146.99 16.535 146.99 13 148 C8.71 148 4.42 148 0 148 C-5.445 146.02 -5.445 146.02 -11 144 C-11.33 143.67 -11.66 143.34 -12 143 C-17.61 143 -23.22 143 -29 143 C-32.33333333 141.33333333 -35.66666667 139.66666667 -39 138 C-42.3 138.33 -45.6 138.66 -49 139 C-51.64 138.01 -54.28 137.02 -57 136 C-59.64 133.03 -62.28 130.06 -65 127 C-65 126.34 -65 125.68 -65 125 C-67.31 124.67 -69.62 124.34 -72 124 C-73.98 122.35 -75.96 120.7 -78 119 C-82.29 109.76 -86.58 100.52 -91 91 C-91.33 88.36 -91.66 85.72 -92 83 C-91.72285156 81.90300781 -91.44570312 80.80601562 -91.16015625 79.67578125 C-90.79420763 78.22137007 -90.42832573 76.7669421 -90.0625 75.3125 C-89.88009766 74.59126953 -89.69769531 73.87003906 -89.50976562 73.12695312 C-88.58174093 69.43172752 -87.70201539 65.74654531 -87 62 C-87.87011719 61.03900391 -87.87011719 61.03900391 -88.7578125 60.05859375 C-93.24094975 55.09459194 -97.67445028 50.10193044 -102 45 C-102 42.69 -102 40.38 -102 38 C-96 26 -96 26 -89 17 C-84.78212157 13.06970419 -80.55689335 10.02706761 -75.5625 7.125 C-73.71235533 6.07620633 -71.85953315 5.03205617 -70 4 C-68.68 3.67 -67.36 3.34 -66 3 C-53 3 -53 3 -48 4 C-45.525 6.475 -45.525 6.475 -43 9 C-40.525 10.485 -40.525 10.485 -38 12 C-34.7 12 -31.4 12 -28 12 C-23.71 10.68 -19.42 9.36 -15 8 C-12.03 6.02 -9.06 4.04 -6 2 C-4.02 1.34 -2.04 0.68 0 0 Z M10 3 C6.37 3.66 2.74 4.32 -1 5 C-1.68964844 5.38671875 -2.37929687 5.7734375 -3.08984375 6.171875 C-8.94961377 9.4192647 -14.8220482 12.40678567 -21 15 C-21.94359375 15.07347656 -21.94359375 15.07347656 -22.90625 15.1484375 C-28.46913314 15.63435199 -33.61993052 16.50553626 -39 18 C-42.465 19.98 -42.465 19.98 -46 22 C-47.32 23.65 -48.64 25.3 -50 27 C-50.66 27 -51.32 27 -52 27 C-51.34 25.35 -50.68 23.7 -50 22 C-51.010625 21.175 -52.02125 20.35 -53.0625 19.5 C-57.13829986 16.02309318 -60.57240877 12.10477491 -64 8 C-64.66 7.67 -65.32 7.34 -66 7 C-66.99 7.495 -66.99 7.495 -68 8 C-67.34 9.32 -66.68 10.64 -66 12 C-63.69 14.64 -61.38 17.28 -59 20 C-58.01 20 -57.02 20 -56 20 C-55.505 23.465 -55.505 23.465 -55 27 C-56.32 27.99 -57.64 28.98 -59 30 C-59 30.66 -59 31.32 -59 32 C-59.66 32 -60.32 32 -61 32 C-61 31.34 -61 30.68 -61 30 C-61.66 30 -62.32 30 -63 30 C-63.66 28.68 -64.32 27.36 -65 26 C-66.98 23.69 -68.96 21.38 -71 19 C-71.66 19 -72.32 19 -73 19 C-73.66 17.68 -74.32 16.36 -75 15 C-75.99 14.34 -76.98 13.68 -78 13 C-78.99 14.32 -79.98 15.64 -81 17 C-80.25234375 17.80824219 -79.5046875 18.61648437 -78.734375 19.44921875 C-77.73949763 20.52856684 -76.74471077 21.60799837 -75.75 22.6875 C-75.25886719 23.21794922 -74.76773438 23.74839844 -74.26171875 24.29492188 C-71.37269261 27.43433028 -68.62459433 30.63177061 -66 34 C-66 34.99 -66 35.98 -66 37 C-68.31 38.32 -70.62 39.64 -73 41 C-73.66 39.68 -74.32 38.36 -75 37 C-77.97 34.03 -80.94 31.06 -84 28 C-84.33 27.34 -84.66 26.68 -85 26 C-85.66 26 -86.32 26 -87 26 C-87.33 25.01 -87.66 24.02 -88 23 C-88.99 24.32 -89.98 25.64 -91 27 C-90.40832031 27.65226562 -89.81664063 28.30453125 -89.20703125 28.9765625 C-85.04481368 33.58012451 -80.92330844 38.1907832 -77 43 C-76.34 43 -75.68 43 -75 43 C-76.32 45.31 -77.64 47.62 -79 50 C-79.99 50.495 -79.99 50.495 -81 51 C-81.66 49.68 -82.32 48.36 -83 47 C-83.44730469 46.56429687 -83.89460938 46.12859375 -84.35546875 45.6796875 C-88.14521536 41.94650427 -91.66459583 38.143987 -95 34 C-95.33 35.32 -95.66 36.64 -96 38 C-92.37 42.29 -88.74 46.58 -85 51 C-84.34 51 -83.68 51 -83 51 C-82.34 52.32 -81.68 53.64 -81 55 C-80.55269531 54.60167969 -80.10539062 54.20335937 -79.64453125 53.79296875 C-76.25220061 50.82015875 -72.98159776 48.1717806 -69 46 C-67.02 45.505 -67.02 45.505 -65 45 C-65.33 46.32 -65.66 47.64 -66 49 C-67.98 49.66 -69.96 50.32 -72 51 C-74.31 53.31 -76.62 55.62 -79 58 C-85.76979367 71.92439981 -85.76979367 71.92439981 -87 79 C-87 82.3 -87 85.6 -87 89 C-84.99241898 94.61996818 -82.67130215 99.88727134 -79.9375 105.1875 C-77.77632508 109.40278246 -75.66520749 113.55657069 -74 118 C-72.35 118.66 -70.7 119.32 -69 120 C-68.505 118.515 -68.505 118.515 -68 117 C-69.98 113.04 -71.96 109.08 -74 105 C-73.34 105 -72.68 105 -72 105 C-71.73445313 105.71929687 -71.46890625 106.43859375 -71.1953125 107.1796875 C-68.60146573 113.29980961 -64.59044162 118.75450738 -60.76171875 124.16015625 C-58.85536044 126.78436174 -56.93725438 129.39854412 -55 132 C-53.35 132.99 -51.7 133.98 -50 135 C-47.69 135 -45.38 135 -43 135 C-42.67 133.68 -42.34 132.36 -42 131 C-47.51019903 123.20589554 -53.03959126 115.46037916 -59 108 C-57.68 108.66 -56.36 109.32 -55 110 C-54.60731934 110.53890869 -54.21463867 111.07781738 -53.81005859 111.63305664 C-52.00135003 114.11172617 -50.18821001 116.58712174 -48.375 119.0625 C-47.75753906 119.91005859 -47.14007813 120.75761719 -46.50390625 121.63085938 C-42.85324724 126.60728402 -39.08269967 131.37084668 -35 136 C-32.03 136.99 -29.06 137.98 -26 139 C-23.69 138.67 -21.38 138.34 -19 138 C-19 136.02 -19 134.04 -19 132 C-20.89385547 129.14451646 -22.79044856 126.29086108 -24.6875 123.4375 C-25.21794922 122.63763672 -25.74839844 121.83777344 -26.29492188 121.01367188 C-29.44590516 116.27753135 -32.66551856 111.60888436 -36 107 C-36 106.01 -36 105.02 -36 104 C-35.34 104 -34.68 104 -34 104 C-33.67 105.32 -33.34 106.64 -33 108 C-28.05 115.425 -28.05 115.425 -23 123 C-22.34 123 -21.68 123 -21 123 C-20.34 124.65 -19.68 126.3 -19 128 C-16.36 131.63 -13.72 135.26 -11 139 C-8.69 139.99 -6.38 140.98 -4 142 C0.29 142.66 4.58 143.32 9 144 C12.96 143.01 16.92 142.02 21 141 C23.97 138.69 26.94 136.38 30 134 C31.32 132.35 32.64 130.7 34 129 C34.66 126.69 35.32 124.38 36 122 C36 120.68 36 119.36 36 118 C22.14 117.505 22.14 117.505 8 117 C6.02 113.7 4.04 110.4 2 107 C1.34 106.01 0.68 105.02 0 104 C-4 86 -4 86 -4 74 C0.1428701 57.42851959 0.1428701 57.42851959 3.35546875 50.95703125 C6.12064945 45.9849605 9.5451839 41.50926369 13 37 C17.455 33.535 17.455 33.535 22 30 C29.42857143 31 29.42857143 31 33 32 C35.64 32 38.28 32 41 32 C42.98 31.34 44.96 30.68 47 30 C47.99 29.01 48.98 28.02 50 27 C50.33 24.03 50.66 21.06 51 18 C50.01 16.35 49.02 14.7 48 13 C39.45210437 8.41220297 39.45210437 8.41220297 30.4375 5.0625 C23.71803595 3.54415957 16.85955634 3.3434297 10 3 Z M-54 7 C-53.40251953 7.68835938 -53.40251953 7.68835938 -52.79296875 8.390625 C-50.08857938 11.52271585 -47.42008229 14.63877459 -45 18 C-45 16.35 -45 14.7 -45 13 C-47.31 11.02 -49.62 9.04 -52 7 C-52.66 7 -53.32 7 -54 7 Z M-47 18 C-47.66 19.32 -48.32 20.64 -49 22 C-48.01 21.34 -47.02 20.68 -46 20 C-46.33 19.34 -46.66 18.68 -47 18 Z M22 34 C22 42.58 22 51.16 22 60 C25.96 60 29.92 60 34 60 C34 52.08 34 44.16 34 36 C28.06 35.01 28.06 35.01 22 34 Z M2 61 C-0.62103443 72.40549897 -0.62103443 72.40549897 0 90 C0.66 92.97 1.32 95.94 2 99 C2.33 99 2.66 99 3 99 C3 86.46 3 73.92 3 61 C2.67 61 2.34 61 2 61 Z M22 83 C22 93.56 22 104.12 22 115 C25.96 115 29.92 115 34 115 C34 104.44 34 93.88 34 83 C30.04 83 26.08 83 22 83 Z " fill="#FDFDFD" transform="translate(102,111)"/>
<path d="M0 0 C5.61 0 11.22 0 17 0 C19.57949555 5.57728768 22.06742014 11.10122272 24.19458008 16.86328125 C25.60694518 20.61018013 27.15263926 24.30199861 28.6875 28 C29.780625 30.64 30.87375 33.28 32 36 C32.33 24.12 32.66 12.24 33 0 C37.95 0 42.9 0 48 0 C48.33 29.7 48.66 59.4 49 90 C43.72 89.67 38.44 89.34 33 89 C29.63018491 82.26036982 29.63018491 82.26036982 28.53515625 79.23046875 C28.29458496 78.57393311 28.05401367 77.91739746 27.80615234 77.2409668 C27.56074707 76.56332275 27.3153418 75.88567871 27.0625 75.1875 C25.44730145 70.79633481 23.82569245 66.44355626 21.875 62.1875 C19.65673801 57.23338157 17.85500627 52.10126724 16 47 C15.67 60.86 15.34 74.72 15 89 C13.02 89.495 13.02 89.495 11 90 C7.04 89.67 3.08 89.34 -1 89 C-1 59.96 -1 30.92 -1 1 C-0.67 0.67 -0.34 0.34 0 0 Z M33 41 C34 43 34 43 34 43 Z " fill="#FEFEFE" transform="translate(213,139)"/>
<path d="M0 0 C23 0 23 0 31 1 C32.98 1.99 34.96 2.98 37 4 C38.98 6.31 40.96 8.62 43 11 C44.98 15.29 46.96 19.58 49 24 C51 34 51 34 51 55 C49.68 60.28 48.36 65.56 47 71 C44.69 74.63 42.38 78.26 40 82 C37.36 83.98 34.72 85.96 32 88 C27.875 89 27.875 89 21 90 C13.74 90 6.48 90 -1 90 C-0.67 60.3 -0.34 30.6 0 0 Z M18 22 C18 37.18 18 52.36 18 68 C21.465 67.505 21.465 67.505 25 67 C26.65 64.36 28.3 61.72 30 59 C30.33 58.01 30.66 57.02 31 56 C31 48.41 31 40.82 31 33 C29.68 30.03 28.36 27.06 27 24 C26.34 23.34 25.68 22.68 25 22 C22.69 22 20.38 22 18 22 Z " fill="#FEFEFE" transform="translate(268,139)"/>
<path d="M0 0 C3.3 0 6.6 0 10 0 C12.97 1.65 15.94 3.3 19 5 C20.98 7.31 22.96 9.62 25 12 C25.79675015 13.85198794 26.58714361 15.7067111 27.375 17.5625 C27.81585938 18.59503906 28.25671875 19.62757813 28.7109375 20.69140625 C30.02033692 24.05219808 31.00911899 27.53191647 32 31 C33.08823529 50.58823529 33.08823529 50.58823529 31.38574219 61.01025391 C30.39115606 66.14055578 28.64939163 71.05182512 27 76 C23.04 80.95 23.04 80.95 19 86 C18.01 86.33 17.02 86.66 16 87 C16 87.66 16 88.32 16 89 C13.03 89.99 13.03 89.99 10 91 C5.71 91 1.42 91 -3 91 C-4.98 89.68 -6.96 88.36 -9 87 C-11.31 84.36 -13.62 81.72 -16 79 C-17.65 75.37 -19.3 71.74 -21 68 C-23 58 -23 58 -23 35 C-22.01 30.38 -21.02 25.76 -20 21 C-18.35 17.7 -16.7 14.4 -15 11 C-13.35 9.02 -11.7 7.04 -10 5 C-8.02 3.68 -6.04 2.36 -4 1 C-2.68 0.67 -1.36 0.34 0 0 Z M4 21 C2.68 22.32 1.36 23.64 0 25 C-0.99 28.3 -1.98 31.6 -3 35 C-3 42.59 -3 50.18 -3 58 C-2.01 60.97 -1.02 63.94 0 67 C1.65 67.99 3.3 68.98 5 70 C6.32 69.34 7.64 68.68 9 68 C10.25553344 64.14969746 11.16570131 60.46468413 11.625 56.4375 C12.26435775 48.77683174 12.51399164 41.0761772 11.55078125 33.4375 C11.08111461 30.6128382 10.57535644 27.80486265 10 25 C8.68 23.68 7.36 22.36 6 21 C5.34 21 4.68 21 4 21 Z " fill="#FEFEFE" transform="translate(411,138)"/>
<path d="M0 0 C3.63 0 7.26 0 11 0 C14.3 1.65 17.6 3.3 21 5 C22.98 7.97 24.96 10.94 27 14 C27.99 16.64 28.98 19.28 30 22 C25.43910942 24.9286937 20.90522335 27.67001891 16 30 C15.01 30 14.02 30 13 30 C12.01 27.69 11.02 25.38 10 23 C7.03 22.67 4.06 22.34 1 22 C1.33 24.31 1.66 26.62 2 29 C7.28 30.98 12.56 32.96 18 35 C20.31 36.65 22.62 38.3 25 40 C26.65 43.3 28.3 46.6 30 50 C30.70970957 54.25825744 31.21060692 58.40233698 31.16796875 62.734375 C30.83523893 67.22235868 29.88159334 71.59203329 29 76 C26.69 78.97 24.38 81.94 22 85 C20.02 85.99 20.02 85.99 18 87 C18 87.66 18 88.32 18 89 C14.535 89.99 14.535 89.99 11 91 C6.05 91 1.1 91 -4 91 C-6.64 89.02 -9.28 87.04 -12 85 C-13.32 83.35 -14.64 81.7 -16 80 C-17.65 76.04 -19.3 72.08 -21 68 C-20.67 66.35 -20.34 64.7 -20 63 C-13.07 60.525 -13.07 60.525 -6 58 C-5.34 58 -4.68 58 -4 58 C-2.68 60.97 -1.36 63.94 0 67 C1.32 67.33 2.64 67.66 4 68 C5.98 68 7.96 68 10 68 C10.33 66.35 10.66 64.7 11 63 C10.67 62.34 10.34 61.68 10 61 C4.39 58.69 -1.22 56.38 -7 54 C-8.98 52.35 -10.96 50.7 -13 49 C-14.65 45.7 -16.3 42.4 -18 39 C-19 34 -19 34 -19 24 C-18.01 20.7 -17.02 17.4 -16 14 C-13.03 9.545 -13.03 9.545 -10 5 C-6.7 3.35 -3.4 1.7 0 0 Z " fill="#FEFEFE" transform="translate(338,138)"/>
<path d="M0 0 C6.27 0 12.54 0 19 0 C21.38487966 10.01649456 23.44899785 20.07190159 25.44091797 30.17236328 C26.4308703 35.17918768 27.43522175 40.18313131 28.4375 45.1875 C28.85683381 47.28384157 29.2761039 49.38019589 29.6953125 51.4765625 C29.90704102 52.53520508 30.11876953 53.59384766 30.33691406 54.68457031 C36 83 36 83 36 89 C29.73 89.33 23.46 89.66 17 90 C16.01 84.39 15.02 78.78 14 73 C7.07 72.505 7.07 72.505 0 72 C0.33 72.99 0.66 73.98 1 75 C-0.32 79.95 -1.64 84.9 -3 90 C-7.62 90 -12.24 90 -17 90 C-17.495 87.525 -17.495 87.525 -18 85 C-17.07428558 78.85761254 -16.01582922 72.82407747 -14.4375 66.8125 C-13.56359266 63.45531141 -12.84168401 60.26906388 -12.5625 56.8125 C-12.17397063 52.41973938 -11.16584848 48.21251562 -10.125 43.9375 C-8.27907333 36.34535537 -6.7536471 28.7442155 -5.37207031 21.05419922 C-4.70404268 17.3660204 -4.00614624 13.68342993 -3.3125 10 C-3.05847165 8.64585623 -2.80455355 7.29169178 -2.55078125 5.9375 C-2.36902344 4.968125 -2.18726563 3.99875 -2 3 C-1.34 2.01 -0.68 1.02 0 0 Z M7 31 C6.01 37.6 5.02 44.2 4 51 C4.99 51.33 5.98 51.66 7 52 C8.32 51.34 9.64 50.68 11 50 C10.68798326 47.95825942 10.37536431 45.91661087 10.0625 43.875 C9.88847656 42.73804688 9.71445313 41.60109375 9.53515625 40.4296875 C9.04410734 37.28267331 8.52981281 34.14069217 8 31 C7.67 31 7.34 31 7 31 Z " fill="#FDFDFD" transform="translate(174,139)"/>
<path d="M0 0 C4.62 0 9.24 0 14 0 C17.3 1.32 20.6 2.64 24 4 C35.46709649 12.33970654 35.46709649 12.33970654 40.05078125 17.57421875 C43.15866872 21.44195046 45.68920322 25.61449404 48 30 C48.69089793 31.65676862 49.36481475 33.32108311 50 35 C50 37.31 50 39.62 50 42 C45.71 46.62 41.42 51.24 37 56 C36.34 57.65 35.68 59.3 35 61 C36.32 65.29 37.64 69.58 39 74 C39 78.62 39 83.24 39 88 C37.35 88.33 35.7 88.66 34 89 C34 84.71 34 80.42 34 76 C32.02 70.39 30.04 64.78 28 59 C26.02 56.36 24.04 53.72 22 51 C19.36 49.35 16.72 47.7 14 46 C13.67 45.01 13.34 44.02 13 43 C14.98 42.505 14.98 42.505 17 42 C23 46.5 23 46.5 29 51 C34.37194039 45.23168342 39.61756118 39.57365823 44 33 C43.34 33 42.68 33 42 33 C40.58155991 34.56089026 39.16532975 36.1237889 37.75 37.6875 C36.96109375 38.55761719 36.1721875 39.42773438 35.359375 40.32421875 C33.15500436 42.82420863 31.05866059 45.37945728 29 48 C27.515 47.505 27.515 47.505 26 47 C25.01 45.68 24.02 44.36 23 43 C23.66 41.35 24.32 39.7 25 38 C29.95 33.05 29.95 33.05 35 28 C35.99 26.35 36.98 24.7 38 23 C37.01 22.01 37.01 22.01 36 21 C35.67 21.66 35.34 22.32 35 23 C34.34 23 33.68 23 33 23 C32.34 24.32 31.68 25.64 31 27 C27.37 30.63 23.74 34.26 20 38 C18.68 37.34 17.36 36.68 16 36 C15.01 35.01 14.02 34.02 13 33 C13.66 31.35 14.32 29.7 15 28 C15.66 28 16.32 28 17 28 C17.66 26.68 18.32 25.36 19 24 C21.97 20.7 24.94 17.4 28 14 C27.01 13.01 26.02 12.02 25 11 C23.35 12.98 21.7 14.96 20 17 C19.34 17 18.68 17 18 17 C17.34 18.32 16.68 19.64 16 21 C13.69 23.64 11.38 26.28 9 29 C8.34 29 7.68 29 7 29 C7 28.34 7 27.68 7 27 C5.68 26.34 4.36 25.68 3 25 C2.505 23.02 2.505 23.02 2 21 C2.66 20.01 3.32 19.02 4 18 C4.66 18 5.32 18 6 18 C6.66 16.68 7.32 15.36 8 14 C10.31 11.36 12.62 8.72 15 6 C14.01 6 13.02 6 12 6 C8.04 10.29 4.08 14.58 0 19 C-0.99 19.495 -0.99 19.495 -2 20 C-1.01 20.99 -0.02 21.98 1 23 C1 23.66 1 24.32 1 25 C-0.32 24.67 -1.64 24.34 -3 24 C-4.32 22.35 -5.64 20.7 -7 19 C-9.64 17.68 -12.28 16.36 -15 15 C-20.30764827 14.02227532 -25.63108121 13.49869404 -31 13 C-32.98 12.34 -34.96 11.68 -37 11 C-37.33 9.02 -37.66 7.04 -38 5 C-33.38 6.32 -28.76 7.64 -24 9 C-20.7 9 -17.4 9 -14 9 C-9.91036181 6.71461395 -6.53637896 4.04293074 -3 1 C-2.01 0.67 -1.02 0.34 0 0 Z M0 4 C-3.465 6.97 -3.465 6.97 -7 10 C-7 11.65 -7 13.3 -7 15 C-6.1646875 13.948125 -6.1646875 13.948125 -5.3125 12.875 C-2.90875268 9.88655739 -0.46189568 6.94059762 2 4 C1.34 4 0.68 4 0 4 Z " fill="#FCFCFC" transform="translate(550,114)"/>
<path d="M0 0 C1.98 0 3.96 0 6 0 C6 5.28 6 10.56 6 16 C8.97 16 11.94 16 15 16 C17.71970716 10.74815169 20.01095551 5.56932457 22 0 C24.31 0 26.62 0 29 0 C32.465 8.415 32.465 8.415 36 17 C36 18.32 36 19.64 36 21 C34.35 21 32.7 21 31 21 C30.01 19.68 29.02 18.36 28 17 C26.02 17 24.04 17 22 17 C21.67 18.32 21.34 19.64 21 21 C14.07 21 7.14 21 0 21 C0 14.07 0 7.14 0 0 Z M25 8 C24.67 9.32 24.34 10.64 24 12 C24.99 12 25.98 12 27 12 C26.34 10.68 25.68 9.36 25 8 Z " fill="#FDFDFD" transform="translate(187,267)"/>
<path d="M0 0 C2.31 0 4.62 0 7 0 C7.33 4.95 7.66 9.9 8 15 C9.65 10.38 11.3 5.76 13 1 C13.33 0.67 13.66 0.34 14 0 C16.31 0 18.62 0 21 0 C23.31 6.27 25.62 12.54 28 19 C28 19.66 28 20.32 28 21 C26.02 21 24.04 21 22 21 C21.67 19.68 21.34 18.36 21 17 C18.36 17 15.72 17 13 17 C13 18.32 13 19.64 13 21 C9.04 21 5.08 21 1 21 C0.67 20.67 0.34 20.34 0 20 C0 13.4 0 6.8 0 0 Z M17 9 C16.67 9.99 16.34 10.98 16 12 C16.99 12 17.98 12 19 12 C18.67 11.01 18.34 10.02 18 9 C17.67 9 17.34 9 17 9 Z M6 17 C7 19 7 19 7 19 Z " fill="#FBFBFB" transform="translate(371,267)"/>
<path d="M0 0 C4.95 0 9.9 0 15 0 C15.99 1.32 16.98 2.64 18 4 C17.67 5.98 17.34 7.96 17 10 C17.99 11.485 17.99 11.485 19 13 C18.67 14.98 18.34 16.96 18 19 C17.34 19.66 16.68 20.32 16 21 C10.72 21 5.44 21 0 21 C0 14.07 0 7.14 0 0 Z M6 4 C6 5.32 6 6.64 6 8 C7.98 7.67 9.96 7.34 12 7 C12 6.34 12 5.68 12 5 C9.03 4.505 9.03 4.505 6 4 Z M6 12 C6 13.32 6 14.64 6 16 C8.31 16 10.62 16 13 16 C13 15.01 13 14.02 13 13 C10.69 12.67 8.38 12.34 6 12 Z " fill="#FEFEFE" transform="translate(224,267)"/>
<path d="M0 0 C2.64 0.33 5.28 0.66 8 1 C9.65 2.65 11.3 4.3 13 6 C13.33 8.31 13.66 10.62 14 13 C12.68 15.64 11.36 18.28 10 21 C9.34 21.33 8.68 21.66 8 22 C4.37 22 0.74 22 -3 22 C-4.65 20.35 -6.3 18.7 -8 17 C-8.33 14.36 -8.66 11.72 -9 9 C-8.01 7.02 -7.02 5.04 -6 3 C-5.34 2.34 -4.68 1.68 -4 1 C-2.68 0.67 -1.36 0.34 0 0 Z M1 5 C0.01 5.99 -0.98 6.98 -2 8 C-2 10.31 -2 12.62 -2 15 C-1.67 15.66 -1.34 16.32 -1 17 C0.98 17.495 0.98 17.495 3 18 C3.99 17.67 4.98 17.34 6 17 C6.33 14.03 6.66 11.06 7 8 C6.01 7.01 5.02 6.02 4 5 C3.01 5 2.02 5 1 5 Z " fill="#FCFCFC" transform="translate(252,266)"/>
<path d="M0 0 C2.64 0.33 5.28 0.66 8 1 C9.32 2.65 10.64 4.3 12 6 C11.67 6.66 11.34 7.32 11 8 C10.01 8.33 9.02 8.66 8 9 C9.32 9.99 10.64 10.98 12 12 C11.67 14.97 11.34 17.94 11 21 C10.34 21.33 9.68 21.66 9 22 C5.04 22 1.08 22 -3 22 C-3.66 21.67 -4.32 21.34 -5 21 C-5.66 19.02 -6.32 17.04 -7 15 C-6.67 14.67 -6.34 14.34 -6 14 C-4.35 14 -2.7 14 -1 14 C-0.67 14.99 -0.34 15.98 0 17 C1.98 17 3.96 17 6 17 C5.67 16.34 5.34 15.68 5 15 C2.36 14.34 -0.28 13.68 -3 13 C-3.99 11.68 -4.98 10.36 -6 9 C-5.67 7.02 -5.34 5.04 -5 3 C-3.35 2.01 -1.7 1.02 0 0 Z M0 5 C0 5.66 0 6.32 0 7 C2.97 7.495 2.97 7.495 6 8 C5.67 7.01 5.34 6.02 5 5 C3.35 5 1.7 5 0 5 Z " fill="#FBFBFB" transform="translate(300,266)"/>
<path d="M0 0 C4.95 0 9.9 0 15 0 C15.99 0.99 16.98 1.98 18 3 C18 4.98 18 6.96 18 9 C17.01 10.32 16.02 11.64 15 13 C16.98 15.97 16.98 15.97 19 19 C19 19.66 19 20.32 19 21 C17.02 21 15.04 21 13 21 C11.35 18.69 9.7 16.38 8 14 C7.01 13.67 6.02 13.34 5 13 C5 15.64 5 18.28 5 21 C3.35 21 1.7 21 0 21 C0 14.07 0 7.14 0 0 Z M6 4 C5.67 5.32 5.34 6.64 5 8 C6.98 8 8.96 8 11 8 C11.33 7.01 11.66 6.02 12 5 C9.03 4.505 9.03 4.505 6 4 Z " fill="#FEFEFE" transform="translate(267,267)"/>
<path d="M0 0 C2.97 0.33 5.94 0.66 9 1 C9.66 1.66 10.32 2.32 11 3 C11 4.65 11 6.3 11 8 C10.01 8.33 9.02 8.66 8 9 C9.32 10.32 10.64 11.64 12 13 C11.67 15.31 11.34 17.62 11 20 C10.34 20.66 9.68 21.32 9 22 C5.04 22 1.08 22 -3 22 C-3.99 20.68 -4.98 19.36 -6 18 C-6 16.68 -6 15.36 -6 14 C-4.35 14 -2.7 14 -1 14 C-0.67 14.99 -0.34 15.98 0 17 C1.98 17 3.96 17 6 17 C5.67 16.34 5.34 15.68 5 15 C0.545 13.02 0.545 13.02 -4 11 C-4.33 10.67 -4.66 10.34 -5 10 C-5 7.69 -5 5.38 -5 3 C-3.35 2.01 -1.7 1.02 0 0 Z M0 5 C0 5.66 0 6.32 0 7 C2.475 7.495 2.475 7.495 5 8 C4.67 7.01 4.34 6.02 4 5 C2.68 5 1.36 5 0 5 Z " fill="#FBFBFB" transform="translate(466,266)"/>
<path d="M0 0 C2.64 0.33 5.28 0.66 8 1 C8.99 1.99 9.98 2.98 11 4 C11 5.32 11 6.64 11 8 C10.01 8.33 9.02 8.66 8 9 C9.32 10.32 10.64 11.64 12 13 C11.67 15.31 11.34 17.62 11 20 C10.34 20.66 9.68 21.32 9 22 C5.04 22 1.08 22 -3 22 C-3.99 20.68 -4.98 19.36 -6 18 C-6 16.68 -6 15.36 -6 14 C-4.35 14 -2.7 14 -1 14 C-0.67 14.66 -0.34 15.32 0 16 C1.98 16.33 3.96 16.66 6 17 C5.67 16.34 5.34 15.68 5 15 C2.03 14.01 -0.94 13.02 -4 12 C-4.33 11.34 -4.66 10.68 -5 10 C-5 7.69 -5 5.38 -5 3 C-3.35 2.01 -1.7 1.02 0 0 Z M0 5 C0 5.66 0 6.32 0 7 C2.475 7.495 2.475 7.495 5 8 C4.67 7.01 4.34 6.02 4 5 C2.68 5 1.36 5 0 5 Z " fill="#FCFCFC" transform="translate(430,266)"/>
<path d="M0 0 C5.61 0 11.22 0 17 0 C17 1.32 17 2.64 17 4 C13.37 4 9.74 4 6 4 C6 4.99 6 5.98 6 7 C9.3 7 12.6 7 16 7 C16 8.65 16 10.3 16 12 C12.7 12 9.4 12 6 12 C6 13.32 6 14.64 6 16 C9.63 16 13.26 16 17 16 C17.33 17.65 17.66 19.3 18 21 C12.06 21 6.12 21 0 21 C0 14.07 0 7.14 0 0 Z " fill="#FEFEFE" transform="translate(332,267)"/>
<path d="M0 0 C1.65 0 3.3 0 5 0 C5 2.31 5 4.62 5 7 C6.98 6.67 8.96 6.34 11 6 C11 4.02 11 2.04 11 0 C13.31 0 15.62 0 18 0 C18 6.6 18 13.2 18 20 C17.67 20.33 17.34 20.66 17 21 C15.35 21 13.7 21 12 21 C11.67 20.67 11.34 20.34 11 20 C11 18.02 11 16.04 11 14 C11.33 13.34 11.66 12.68 12 12 C9.69 12 7.38 12 5 12 C5 14.97 5 17.94 5 21 C3.35 21 1.7 21 0 21 C0 14.07 0 7.14 0 0 Z " fill="#FEFEFE" transform="translate(140,267)"/>
<path d="M0 0 C5.61 0 11.22 0 17 0 C17 1.32 17 2.64 17 4 C13.37 4 9.74 4 6 4 C6 4.99 6 5.98 6 7 C8.97 7 11.94 7 15 7 C15.33 8.65 15.66 10.3 16 12 C12.7 12 9.4 12 6 12 C6 13.32 6 14.64 6 16 C9.63 16 13.26 16 17 16 C17 17.65 17 19.3 17 21 C11.39 21 5.78 21 0 21 C0 14.07 0 7.14 0 0 Z " fill="#FEFEFE" transform="translate(160,267)"/>
<path d="M0 0 C2.31 0.33 4.62 0.66 7 1 C7.99 1.66 8.98 2.32 10 3 C10.33 4.65 10.66 6.3 11 8 C9.02 8 7.04 8 5 8 C5 7.34 5 6.68 5 6 C3.35 6 1.7 6 0 6 C-0.33 6.33 -0.66 6.66 -1 7 C-1 9.97 -1 12.94 -1 16 C0.32 16.33 1.64 16.66 3 17 C3.99 15.68 4.98 14.36 6 13 C7.65 13.66 9.3 14.32 11 15 C10.01 17.475 10.01 17.475 9 20 C8.34 20.66 7.68 21.32 7 22 C3.37 22 -0.26 22 -4 22 C-5.32 20.68 -6.64 19.36 -8 18 C-8.33 17.01 -8.66 16.02 -9 15 C-9 12.69 -9 10.38 -9 8 C-8.01 6.35 -7.02 4.7 -6 3 C-5.34 2.34 -4.68 1.68 -4 1 C-2.68 0.67 -1.36 0.34 0 0 Z " fill="#FCFCFC" transform="translate(359,266)"/>
<path d="M0 0 C4.62 0 9.24 0 14 0 C14.99 0.99 15.98 1.98 17 3 C17 4.98 17 6.96 17 9 C15.35 10.65 13.7 12.3 12 14 C10.02 14 8.04 14 6 14 C6 16.31 6 18.62 6 21 C4.02 21 2.04 21 0 21 C0 14.07 0 7.14 0 0 Z M6 4 C6 5.65 6 7.3 6 9 C7.65 8.67 9.3 8.34 11 8 C11 7.01 11 6.02 11 5 C9.35 4.67 7.7 4.34 6 4 Z " fill="#FAFAFA" transform="translate(314,267)"/>
<path d="M0 0 C0.99 0.33 1.98 0.66 3 1 C3.495 2.485 3.495 2.485 4 4 C1.69 4.99 -0.62 5.98 -3 7 C-3.99 7.99 -4.98 8.98 -6 10 C-6 11.65 -6 13.3 -6 15 C-3.69 17.64 -1.38 20.28 1 23 C1 23.66 1 24.32 1 25 C-0.32 24.67 -1.64 24.34 -3 24 C-4.32 22.35 -5.64 20.7 -7 19 C-9.64 17.68 -12.28 16.36 -15 15 C-20.30764827 14.02227532 -25.63108121 13.49869404 -31 13 C-32.98 12.34 -34.96 11.68 -37 11 C-37.33 9.02 -37.66 7.04 -38 5 C-33.38 6.32 -28.76 7.64 -24 9 C-20.7 9 -17.4 9 -14 9 C-9.91036181 6.71461395 -6.53637896 4.04293074 -3 1 C-2.01 0.67 -1.02 0.34 0 0 Z " fill="#FAFAFA" transform="translate(550,114)"/>
<path d="M0 0 C5.94 0 11.88 0 18 0 C18 1.32 18 2.64 18 4 C16.35 4.33 14.7 4.66 13 5 C12.67 10.28 12.34 15.56 12 21 C10.02 21 8.04 21 6 21 C5.67 15.72 5.34 10.44 5 5 C3.35 4.67 1.7 4.34 0 4 C0 2.68 0 1.36 0 0 Z " fill="#F9F9F9" transform="translate(442,267)"/>
<path d="M0 0 C1.98 0 3.96 0 6 0 C6 5.28 6 10.56 6 16 C8.97 16 11.94 16 15 16 C15.33 17.32 15.66 18.64 16 20 C15.67 20.33 15.34 20.66 15 21 C10.05 21 5.1 21 0 21 C0 14.07 0 7.14 0 0 Z " fill="#FEFEFE" transform="translate(400,267)"/>
<path d="M0 0 C5.94 0 11.88 0 18 0 C17.67 1.32 17.34 2.64 17 4 C15.35 4 13.7 4 12 4 C12 9.61 12 15.22 12 21 C10.02 21 8.04 21 6 21 C6 15.39 6 9.78 6 4 C4.02 4 2.04 4 0 4 C0 2.68 0 1.36 0 0 Z " fill="#FCFCFC" transform="translate(121,267)"/>
<path d="M0 0 C2.31 0 4.62 0 7 0 C7 6.6 7 13.2 7 20 C6.67 20.33 6.34 20.66 6 21 C4.35 21 2.7 21 1 21 C0.67 20.67 0.34 20.34 0 20 C0 13.4 0 6.8 0 0 Z " fill="#FEFEFE" transform="translate(371,267)"/>
<path d="M0 0 C2.31 0 4.62 0 7 0 C7 6.6 7 13.2 7 20 C6.67 20.33 6.34 20.66 6 21 C4.35 21 2.7 21 1 21 C0.67 19.68 0.34 18.36 0 17 C0 11.39 0 5.78 0 0 Z " fill="#FEFEFE" transform="translate(416,267)"/>
<path d="M0 0 C0.99 0.33 1.98 0.66 3 1 C2.67 2.65 2.34 4.3 2 6 C-0.64 9.63 -3.28 13.26 -6 17 C-7.32 17.33 -8.64 17.66 -10 18 C-7.28316728 13.06945173 -4.33342102 8.53715638 -1 4 C-0.67 2.68 -0.34 1.36 0 0 Z " fill="#F4F4F4" transform="translate(532,214)"/>
<path d="M0 0 C0.99 0.33 1.98 0.66 3 1 C1.04428496 3.62696 -0.91501656 6.25122354 -2.875 8.875 C-3.43058594 9.62136719 -3.98617187 10.36773437 -4.55859375 11.13671875 C-5.09355469 11.85214844 -5.62851562 12.56757813 -6.1796875 13.3046875 C-6.91807861 14.2944458 -6.91807861 14.2944458 -7.67138672 15.30419922 C-9 17 -9 17 -11 19 C-11.33 18.01 -11.66 17.02 -12 16 C-10.75153512 14.26972464 -9.50115598 12.54083043 -8.25 10.8125 C-7.55390625 9.84957031 -6.8578125 8.88664063 -6.140625 7.89453125 C-4.15434805 5.20870786 -2.10500812 2.59333207 0 0 Z " fill="#F0F0F0" transform="translate(554,219)"/>
<path d="M0 0 C1.32 0.33 2.64 0.66 4 1 C4.99 2.65 5.98 4.3 7 6 C4.525 5.01 4.525 5.01 2 4 C1.34 2.68 0.68 1.36 0 0 Z " fill="#ECECEC" transform="translate(43,219)"/>
<path d="M0 0 C0.33 0.99 0.66 1.98 1 3 C0.01 4.485 0.01 4.485 -1 6 C-1.99 5.67 -2.98 5.34 -4 5 C-3.34 3.68 -2.68 2.36 -2 1 C-1.34 0.67 -0.68 0.34 0 0 Z " fill="#D9D9D9" transform="translate(571,216)"/>
<path d="M0 0 C0.99 0.33 1.98 0.66 3 1 C2.67 1.66 2.34 2.32 2 3 C1.01 3 0.02 3 -1 3 C-0.67 2.01 -0.34 1.02 0 0 Z " fill="#A9A9A9" transform="translate(66,214)"/>
<path d="M0 0 C0.99 0 1.98 0 3 0 C2.67 0.99 2.34 1.98 2 3 C1.01 2.67 0.02 2.34 -1 2 C-0.67 1.34 -0.34 0.68 0 0 Z " fill="#FFFFFF" transform="translate(50,136)"/>
<path d="M0 0 C1.32 0.33 2.64 0.66 4 1 C3.01 1.66 2.02 2.32 1 3 C0.67 2.01 0.34 1.02 0 0 Z " fill="#FEFEFE" transform="translate(43,219)"/>
<path d="M0 0 C0.66 0 1.32 0 2 0 C2.33 0.99 2.66 1.98 3 3 C2.01 3 1.02 3 0 3 C0 2.01 0 1.02 0 0 Z " fill="#D6D6D6" transform="translate(28,216)"/>
<path d="" fill="#FFFFFF" transform="translate(0,0)"/>
<path d="" fill="#FFFFFF" transform="translate(0,0)"/>
</svg>
