<?xml version="1.0" encoding="UTF-8"?>
<svg version="1.1" xmlns="http://www.w3.org/2000/svg" width="375" height="375">
<path d="M0 0 C6.93 0 13.86 0 21 0 C21 6.93 21 13.86 21 21 C26.94 21 32.88 21 39 21 C39 14.07 39 7.14 39 0 C46.26 0 53.52 0 61 0 C61 20.79 61 41.58 61 63 C53.74 63 46.48 63 39 63 C39 55.08 39 47.16 39 39 C33.06 39 27.12 39 21 39 C21 46.92 21 54.84 21 63 C14.07 63 7.14 63 0 63 C0 42.21 0 21.42 0 0 Z " fill="#271C19" transform="translate(142,143)"/>
<path d="M0 0 C7.65520181 4.60223442 12.82425459 11.498032 15.34375 20.12109375 C17.35355211 30.2931534 16.5664468 40.63713736 10.84375 49.37109375 C4.65581314 57.57074671 -1.88182979 61.47780884 -12.03125 63.18359375 C-20.8798745 64.16374908 -29.9584183 62.65879229 -37.34375 57.49609375 C-43.32388678 52.5330704 -48.61175421 45.97322352 -50.03125 38.18359375 C-50.76577172 28.97033369 -51.28154995 20.18948591 -46.03125 12.18359375 C-45.59554687 11.47847656 -45.15984375 10.77335938 -44.7109375 10.046875 C-35.29496949 -3.87126351 -14.78452822 -7.31631619 0 0 Z M-26.03125 17.18359375 C-28.22315157 21.41357923 -28.36543182 25.45082914 -28.34375 30.12109375 C-28.35986328 30.81138672 -28.37597656 31.50167969 -28.39257812 32.21289062 C-28.3970657 36.94728644 -27.58980902 40.20031508 -25.03125 44.18359375 C-21.06995946 46.62131101 -18.97184379 47.31113189 -14.34375 46.68359375 C-10.05700373 44.74242563 -8.10779039 42.33667452 -6.03125 38.18359375 C-5.87980436 35.58571846 -5.79988019 33.03250554 -5.78125 30.43359375 C-5.760625 29.72976562 -5.74 29.0259375 -5.71875 28.30078125 C-5.67713219 22.70318634 -6.86969735 18.58531892 -10.71875 14.30859375 C-16.61694118 11.43920344 -21.70076327 12.47100525 -26.03125 17.18359375 Z " fill="#281D1A" transform="translate(56.03125,144.81640625)"/>
<path d="M0 0 C1.18299683 0.01353516 1.18299683 0.01353516 2.38989258 0.02734375 C10.85797078 0.2783789 17.11002083 1.9642629 23.125 8.1875 C26.25464156 12.10507484 27.33519678 15.52316885 28.125 20.4375 C24.75578823 22.12210589 21.0140138 21.74842974 17.3125 21.8125 C16.10110352 21.86857422 16.10110352 21.86857422 14.86523438 21.92578125 C10.43065234 21.99115592 8.76475798 22.01508432 5.3515625 18.93359375 C4.61679688 18.10988281 3.88203125 17.28617188 3.125 16.4375 C0.69820504 15.84141472 0.69820504 15.84141472 -1.6875 16.125 C-2.47769531 16.17011719 -3.26789063 16.21523437 -4.08203125 16.26171875 C-4.67371094 16.31972656 -5.26539062 16.37773437 -5.875 16.4375 C-5.83352993 18.40400635 -5.83352993 18.40400635 -4.875 20.4375 C-2.24644635 21.67458357 -2.24644635 21.67458357 1 22.4375 C2.17433594 22.7675 3.34867188 23.0975 4.55859375 23.4375 C5.73550781 23.7675 6.91242188 24.0975 8.125 24.4375 C15.57805951 26.84353182 21.92773226 29.15609363 27.5 34.875 C29.99174875 40.33767996 29.85634448 45.53396673 29.125 51.4375 C27.5625 54.875 27.5625 54.875 25.125 57.4375 C24.66222656 57.95828125 24.19945312 58.4790625 23.72265625 59.015625 C17.51434724 65.26947173 9.02384789 66.52273747 0.5 66.8125 C-7.9760955 66.5434176 -16.23974697 64.22769185 -22.27734375 57.98828125 C-26.43054455 53.20909076 -27.875 50.79840695 -27.875 44.4375 C-20.945 44.4375 -14.015 44.4375 -6.875 44.4375 C-6.215 45.7575 -5.555 47.0775 -4.875 48.4375 C-2.50886544 49.62056728 -1.00719264 49.57104608 1.625 49.5625 C2.4190625 49.56507813 3.213125 49.56765625 4.03125 49.5703125 C6.18418534 49.57027996 6.18418534 49.57027996 8.125 48.4375 C7.9527375 46.46608413 7.9527375 46.46608413 7.125 44.4375 C5.25370705 43.39527967 5.25370705 43.39527967 2.8984375 42.875 C2.03089844 42.63523438 1.16335937 42.39546875 0.26953125 42.1484375 C-0.64441406 41.91382813 -1.55835937 41.67921875 -2.5 41.4375 C-11.20705553 39.14418002 -18.87857277 36.78557378 -24.70703125 29.48828125 C-27.26298741 25.00039836 -27.35516779 20.23435364 -26.49609375 15.23046875 C-24.86874151 9.87760572 -21.64087734 6.2970264 -16.875 3.4375 C-11.25476101 0.74854785 -6.19496889 -0.08496261 0 0 Z " fill="#271C19" transform="translate(104.875,141.5625)"/>
<path d="M0 0 C0.87454834 0.00523682 1.74909668 0.01047363 2.65014648 0.01586914 C3.59438477 0.0190918 4.53862305 0.02231445 5.51147461 0.02563477 C6.50469727 0.03401367 7.49791992 0.04239258 8.52124023 0.05102539 C9.51833008 0.05553711 10.51541992 0.06004883 11.54272461 0.06469727 C14.01478872 0.07652532 16.48673541 0.0930069 18.95874023 0.11352539 C24.16948068 12.4966968 28.49621113 25.15762942 32.84057617 37.86499023 C33.9094102 40.9702098 34.99567846 44.06853856 36.09155273 47.16430664 C36.41841064 48.08832275 36.74526855 49.01233887 37.08203125 49.96435547 C37.69483786 51.69286197 38.30980986 53.42060276 38.92724609 55.14746094 C40.95874023 60.89334018 40.95874023 60.89334018 40.95874023 63.11352539 C34.02874023 63.11352539 27.09874023 63.11352539 19.95874023 63.11352539 C17.95874023 58.11352539 17.95874023 58.11352539 17.95874023 55.11352539 C11.35874023 55.11352539 4.75874023 55.11352539 -2.04125977 55.11352539 C-2.37125977 57.42352539 -2.70125977 59.73352539 -3.04125977 62.11352539 C-4.04125977 63.11352539 -4.04125977 63.11352539 -6.08251953 63.22705078 C-7.39434204 63.21919556 -7.39434204 63.21919556 -8.73266602 63.21118164 C-9.6769043 63.20795898 -10.62114258 63.20473633 -11.59399414 63.20141602 C-12.5872168 63.19303711 -13.58043945 63.1846582 -14.60375977 63.17602539 C-15.60084961 63.17151367 -16.59793945 63.16700195 -17.62524414 63.16235352 C-20.09731115 63.15052544 -22.56924642 63.13320497 -25.04125977 63.11352539 C-23.03200752 57.03813042 -20.97112408 50.98291 -18.86157227 44.94165039 C-18.56693085 44.09737488 -18.27228943 43.25309937 -17.96871948 42.38323975 C-17.34890108 40.60830988 -16.72870778 38.83351089 -16.1081543 37.05883789 C-15.17377349 34.38502657 -14.24225702 31.71022828 -13.31079102 29.03540039 C-3.23912887 0.18014531 -3.23912887 0.18014531 0 0 Z M7.95874023 22.11352539 C7.12016335 24.71610864 6.28770679 27.32038186 5.45874023 29.92602539 C5.22026367 30.66401367 4.98178711 31.40200195 4.73608398 32.16235352 C3.75933888 35.24607735 2.95874023 37.85848348 2.95874023 41.11352539 C6.58874023 41.11352539 10.21874023 41.11352539 13.95874023 41.11352539 C12.30874023 34.84352539 10.65874023 28.57352539 8.95874023 22.11352539 C8.62874023 22.11352539 8.29874023 22.11352539 7.95874023 22.11352539 Z " fill="#281D1B" transform="translate(233.041259765625,142.886474609375)"/>
<path d="M0 0 C1.48831242 0.00667405 2.97660807 0.01863442 4.46484375 0.03515625 C5.22345703 0.03966797 5.98207031 0.04417969 6.76367188 0.04882812 C8.64326246 0.06064945 10.52281274 0.07858547 12.40234375 0.09765625 C10.72455069 5.14167814 7.81312148 9.25207032 4.87109375 13.625 C4.32054321 14.45036758 3.76999268 15.27573517 3.20275879 16.12611389 C2.03481836 17.87500642 0.86463754 19.62240455 -0.30761719 21.3684082 C-2.06836065 23.99151252 -3.8218944 26.61931299 -5.57421875 29.24804688 C-10.94991994 37.29418752 -16.38367556 45.28203791 -22.04879761 53.12733459 C-26.61033488 59.46190653 -30.91504217 65.96400643 -35.22265625 72.47265625 C-36.0440486 73.709783 -36.86566256 74.94676263 -37.6875 76.18359375 C-39.66008966 79.15326977 -41.62974304 82.12487857 -43.59765625 85.09765625 C-47.77411504 83.24338917 -49.53537803 80.62989464 -51.91015625 76.84765625 C-52.77808204 75.50139941 -53.6480085 74.15643108 -54.51953125 72.8125 C-54.99970703 72.06983887 -55.47988281 71.32717773 -55.97460938 70.56201172 C-57.79518805 67.79773356 -59.66741257 65.07343576 -61.55078125 62.3515625 C-62.22971436 61.36897461 -62.90864746 60.38638672 -63.6081543 59.37402344 C-64.9626343 57.41764185 -66.32079942 55.46380585 -67.68286133 53.51269531 C-68.61714966 52.1567627 -68.61714966 52.1567627 -69.5703125 50.7734375 C-70.40961304 49.56554565 -70.40961304 49.56554565 -71.26586914 48.33325195 C-72.53169694 46.20837841 -73.1577344 44.51498014 -73.59765625 42.09765625 C-67.88898549 41.50871952 -62.04031037 40.96129873 -56.59765625 43.09765625 C-52.10403428 47.02158076 -49.26918825 52.3969039 -46.56469727 57.64477539 C-46.24557373 58.12422607 -45.9264502 58.60367676 -45.59765625 59.09765625 C-44.93765625 59.09765625 -44.27765625 59.09765625 -43.59765625 59.09765625 C-41.86727642 56.76465946 -40.26209884 54.42755601 -38.6796875 51.99609375 C-38.18978333 51.25560287 -37.69987915 50.515112 -37.19512939 49.75218201 C-35.59400835 47.32965727 -34.0022509 44.90112043 -32.41015625 42.47265625 C-30.77435644 39.99429478 -29.13601992 37.51762327 -27.49754333 35.04103088 C-26.40754144 33.39313869 -25.31831867 31.74473088 -24.22987366 30.09580994 C-19.76148986 23.32919602 -15.23510934 16.60518145 -10.66015625 9.91015625 C-9.74036987 8.56026611 -9.74036987 8.56026611 -8.80200195 7.18310547 C-3.96350222 0.10758692 -3.96350222 0.10758692 0 0 Z " fill="#058CA2" transform="translate(355.59765625,123.90234375)"/>
<path d="M0 0 C4.95 0 9.9 0 15 0 C17.475 8.415 17.475 8.415 20 17 C21.65 11.39 23.3 5.78 25 0 C29.95 0 34.9 0 40 0 C40 11.55 40 23.1 40 35 C36.37 35 32.74 35 29 35 C27.03177114 33.03177114 27.33751619 29.65191291 27 27 C26.01 29.64 25.02 32.28 24 35 C21.36 35 18.72 35 16 35 C15.52014033 33.72942818 15.0411407 32.45853152 14.5625 31.1875 C14.16224609 30.12595703 14.16224609 30.12595703 13.75390625 29.04296875 C13.13774814 27.37327604 12.56280765 25.68842296 12 24 C11.67 27.63 11.34 31.26 11 35 C7.37 35 3.74 35 0 35 C0 23.45 0 11.9 0 0 Z M28 20 C29 23 29 23 29 23 Z " fill="#2A1F1D" transform="translate(91,216)"/>
<path d="M0 0 C3.63 0 7.26 0 11 0 C13.51877308 2.53493979 14.65329025 3.96091529 16.1875 7 C16.56712891 7.66773438 16.94675781 8.33546875 17.33789062 9.0234375 C18.262432 10.66186526 19.13656598 12.3285623 20 14 C20.33 9.38 20.66 4.76 21 0 C24.96 0 28.92 0 33 0 C33 11.55 33 23.1 33 35 C22 35 22 35 19.5 32.98828125 C19.005 32.10527344 18.51 31.22226563 18 30.3125 C17.484375 29.44238281 16.96875 28.57226562 16.4375 27.67578125 C15.963125 26.79277344 15.48875 25.90976563 15 25 C14.01 23.35 13.02 21.7 12 20 C11.67 24.95 11.34 29.9 11 35 C7.37 35 3.74 35 0 35 C0 23.45 0 11.9 0 0 Z " fill="#261C19" transform="translate(274,216)"/>
<path d="M0 0 C4.47500146 2.53553761 6.88277608 5.46163498 8.9375 10.1875 C10.50633229 16.72430119 9.8723149 21.38215502 6.6875 27.3125 C3.06405005 31.49340379 0.22050415 34.03105509 -5.3359375 34.6484375 C-16.60376214 34.77976413 -16.60376214 34.77976413 -21.3125 30.3125 C-26.32359945 24.62422495 -26.66422878 21.07403018 -26.58984375 13.5859375 C-26.19694206 8.94859075 -25.23614069 6.92858191 -22.3125 3.3125 C-15.46530414 -1.99757026 -8.06182428 -3.74406821 0 0 Z M-12.3125 8.3125 C-14.76557527 12.61271163 -14.92759987 16.45410248 -14.3125 21.3125 C-12.99486671 23.8314267 -12.99486671 23.8314267 -11.3125 25.3125 C-7.8475 24.8175 -7.8475 24.8175 -4.3125 24.3125 C-1.78205507 19.69815925 -2.09670197 15.30315483 -3.3125 10.3125 C-5.26883975 7.90128141 -5.26883975 7.90128141 -8.9375 8.1875 C-10.608125 8.249375 -10.608125 8.249375 -12.3125 8.3125 Z " fill="#2A1F1C" transform="translate(74.3125,216.6875)"/>
<path d="M0 0 C3.46803053 1.97201736 5.16205615 3.38482579 7.1875 6.8125 C7.9375 10.625 7.9375 10.625 8.1875 13.8125 C4.5575 13.8125 0.9275 13.8125 -2.8125 13.8125 C-3.4725 12.4925 -4.1325 11.1725 -4.8125 9.8125 C-8.37456661 8.99379815 -8.37456661 8.99379815 -11.8125 8.8125 C-13.36303541 13.46410624 -13.63739894 18.75025265 -11.8125 23.3125 C-11.4825 23.8075 -11.1525 24.3025 -10.8125 24.8125 C-8.5025 24.8125 -6.1925 24.8125 -3.8125 24.8125 C-3.4825 23.4925 -3.1525 22.1725 -2.8125 20.8125 C1.1475 20.4825 5.1075 20.1525 9.1875 19.8125 C8.0339335 26.50318569 6.41329994 29.43989189 1.1875 33.8125 C-5.06998829 35.89832943 -12.41706403 35.9471802 -18.375 33.125 C-25.63858696 26.23390468 -25.63858696 26.23390468 -26.015625 20.984375 C-26.17767586 9.1546624 -26.17767586 9.1546624 -22.8125 4.8125 C-15.78651974 -1.25010708 -8.9349341 -2.78301226 0 0 Z " fill="#2B211E" transform="translate(32.8125,216.1875)"/>
<path d="M0 0 C3.320625 -0.061875 6.64125 -0.12375 10.0625 -0.1875 C11.09511963 -0.21481201 12.12773926 -0.24212402 13.19165039 -0.27026367 C18.92091923 -0.32165964 23.00227532 0.10794866 28 3 C30.19657612 5.16064031 30.88809752 6.37999978 31.43359375 9.40234375 C31.44005436 13.59527865 31.40218638 16.28500199 29.3125 20 C23.88021294 24.69819421 18.91380025 24.18436801 12 24 C12 27.63 12 31.26 12 35 C8.04 35 4.08 35 0 35 C0 23.45 0 11.9 0 0 Z M12 9 C12 10.98 12 12.96 12 15 C13.98 15 15.96 15 18 15 C18.66 13.68 19.32 12.36 20 11 C18.10244856 8.65026182 18.10244856 8.65026182 14.875 8.875 C13.92625 8.91625 12.9775 8.9575 12 9 Z " fill="#2A1F1C" transform="translate(139,216)"/>
<path d="M0 0 C1.65322266 0.01740234 1.65322266 0.01740234 3.33984375 0.03515625 C4.44457031 0.04417969 5.54929688 0.05320313 6.6875 0.0625 C7.54214844 0.07410156 8.39679688 0.08570313 9.27734375 0.09765625 C11.95455236 7.0936661 14.62018995 14.09400588 17.27734375 21.09765625 C17.7465625 22.33128906 18.21578125 23.56492188 18.69921875 24.8359375 C19.055 25.78855469 19.41078125 26.74117187 19.77734375 27.72265625 C20.07640625 28.51929688 20.37546875 29.3159375 20.68359375 30.13671875 C21.27734375 32.09765625 21.27734375 32.09765625 21.27734375 35.09765625 C17.31734375 35.09765625 13.35734375 35.09765625 9.27734375 35.09765625 C8.78234375 32.62265625 8.78234375 32.62265625 8.27734375 30.09765625 C6.65131505 30.15765731 5.02632826 30.24644475 3.40234375 30.34765625 C2.49742187 30.3940625 1.5925 30.44046875 0.66015625 30.48828125 C-0.12617188 30.689375 -0.9125 30.89046875 -1.72265625 31.09765625 C-2.38265625 32.41765625 -3.04265625 33.73765625 -3.72265625 35.09765625 C-7.35265625 35.09765625 -10.98265625 35.09765625 -14.72265625 35.09765625 C-13.2445728 27.47300722 -10.83144523 20.38145526 -8.16015625 13.09765625 C-7.74830078 11.95425781 -7.33644531 10.81085938 -6.91210938 9.6328125 C-3.45796796 0.12403041 -3.45796796 0.12403041 0 0 Z M2.27734375 14.09765625 C1.61734375 16.73765625 0.95734375 19.37765625 0.27734375 22.09765625 C2.25734375 22.09765625 4.23734375 22.09765625 6.27734375 22.09765625 C5.28734375 19.45765625 4.29734375 16.81765625 3.27734375 14.09765625 C2.94734375 14.09765625 2.61734375 14.09765625 2.27734375 14.09765625 Z " fill="#2B211E" transform="translate(245.72265625,215.90234375)"/>
<path d="M0 0 C1.01037827 0.00222061 2.02075653 0.00444122 3.06175232 0.00672913 C4.77341331 0.00684242 4.77341331 0.00684242 6.51965332 0.00695801 C7.76129745 0.01211929 9.00294159 0.01728058 10.2822113 0.02259827 C12.17785072 0.02472069 12.17785072 0.02472069 14.11178589 0.02688599 C17.47705394 0.0315487 20.84225495 0.04053972 24.20750427 0.05158997 C27.63930175 0.06180606 31.07110614 0.06638403 34.50291443 0.07142639 C41.2405633 0.08248071 47.9781803 0.09923742 54.71580505 0.12025452 C51.95721079 7.21380257 51.95721079 7.21380257 48.71580505 10.12025452 C45.51734472 10.81063176 42.39647935 10.70218047 39.13768005 10.60853577 C37.74781891 10.59792366 37.74781891 10.59792366 36.32987976 10.58709717 C33.3743622 10.55913822 30.42074861 10.49639724 27.46580505 10.43275452 C25.46062411 10.40767357 23.45541342 10.38486005 21.45018005 10.36439514 C16.53798962 10.30930656 11.62721998 10.22302363 6.71580505 10.12025452 C6.71580505 15.07025452 6.71580505 20.02025452 6.71580505 25.12025452 C3.41580505 25.12025452 0.11580505 25.12025452 -3.28419495 25.12025452 C-3.31306478 21.14110293 -3.33094901 17.16197798 -3.34669495 13.18275452 C-3.35507385 12.04644592 -3.36345276 10.91013733 -3.37208557 9.73939514 C-3.37530823 8.6598053 -3.37853088 7.58021545 -3.3818512 6.46791077 C-3.38708801 5.46767883 -3.39232483 4.4674469 -3.39772034 3.43690491 C-3.2454263 0.32912399 -3.10527825 0.16348155 0 0 Z " fill="#261B18" transform="translate(283.28419494628906,138.87974548339844)"/>
<path d="M0 0 C10.56 0 21.12 0 32 0 C32 3.3 32 6.6 32 10 C28.7 10 25.4 10 22 10 C22 18.25 22 26.5 22 35 C18.04 35 14.08 35 10 35 C10 26.75 10 18.5 10 10 C6.7 10 3.4 10 0 10 C0 6.7 0 3.4 0 0 Z " fill="#281E1B" transform="translate(314,216)"/>
<path d="M0 0 C3.96 0 7.92 0 12 0 C12 8.58 12 17.16 12 26 C16.95 26 21.9 26 27 26 C27 28.97 27 31.94 27 35 C18.09 35 9.18 35 0 35 C0 23.45 0 11.9 0 0 Z " fill="#2A201D" transform="translate(177,216)"/>
<path d="M0 0 C0.66 0 1.32 0 2 0 C2 13.2 2 26.4 2 40 C-7.24 40 -16.48 40 -26 40 C-25.34 38.68 -24.68 37.36 -24 36 C-23.525625 34.948125 -23.05125 33.89625 -22.5625 32.8125 C-19.54215151 29.49748336 -18.56967322 29.50761547 -14.25 29.125 C-12.50085202 29.05631618 -10.75048555 29.00603616 -9 29 C-9.10441406 27.99582031 -9.20882813 26.99164063 -9.31640625 25.95703125 C-10.0230986 15.99976042 -8.3795311 10.12282228 -2.1640625 2.28125 C-1.44992187 1.5284375 -0.73578125 0.775625 0 0 Z " fill="#302623" transform="translate(344,165)"/>
<path d="M0 0 C3.96 0 7.92 0 12 0 C12 11.55 12 23.1 12 35 C8.04 35 4.08 35 0 35 C0 23.45 0 11.9 0 0 Z " fill="#231815" transform="translate(212,216)"/>
<path d="M0 0 C5.52350273 2.76175137 8.33734447 6.45463477 11 12 C11.55078109 16.08056945 11.44234399 19.91358405 11 24 C12.794375 23.7525 12.794375 23.7525 14.625 23.5 C17.59937206 23.46824514 18.6430341 23.67290572 20.8671875 25.7109375 C25 31.18839713 25 31.18839713 25 34 C17.08 34 9.16 34 1 34 C0.67 22.78 0.34 11.56 0 0 Z " fill="#2D2220" transform="translate(279,171)"/>
<path d="M0 0 C1.01037827 0.00222061 2.02075653 0.00444122 3.06175232 0.00672913 C4.77341331 0.00684242 4.77341331 0.00684242 6.51965332 0.00695801 C7.76129745 0.01211929 9.00294159 0.01728058 10.2822113 0.02259827 C12.17785072 0.02472069 12.17785072 0.02472069 14.11178589 0.02688599 C17.47705394 0.0315487 20.84225495 0.04053972 24.20750427 0.05158997 C27.63930175 0.06180606 31.07110614 0.06638403 34.50291443 0.07142639 C41.2405633 0.08248071 47.9781803 0.09923742 54.71580505 0.12025452 C54.38580505 1.11025452 54.05580505 2.10025452 53.71580505 3.12025452 C35.23580505 2.79025452 16.75580505 2.46025452 -2.28419495 2.12025452 C-2.28419495 9.71025452 -2.28419495 17.30025452 -2.28419495 25.12025452 C-2.61419495 25.12025452 -2.94419495 25.12025452 -3.28419495 25.12025452 C-3.31306478 21.14110293 -3.33094901 17.16197798 -3.34669495 13.18275452 C-3.35507385 12.04644592 -3.36345276 10.91013733 -3.37208557 9.73939514 C-3.37530823 8.6598053 -3.37853088 7.58021545 -3.3818512 6.46791077 C-3.38708801 5.46767883 -3.39232483 4.4674469 -3.39772034 3.43690491 C-3.2454263 0.32912399 -3.10527825 0.16348155 0 0 Z " fill="#625B59" transform="translate(283.28419494628906,138.87974548339844)"/>
<path d="M0 0 C0.66 0 1.32 0 2 0 C2 13.2 2 26.4 2 40 C1.01 40 0.02 40 -1 40 C-1.02505615 39.05157227 -1.0501123 38.10314453 -1.07592773 37.12597656 C-1.1711884 33.59981968 -1.27041441 30.07382041 -1.37231445 26.54785156 C-1.41556707 25.02315614 -1.45724885 23.49841531 -1.49731445 21.97363281 C-1.55525203 19.77915778 -1.61887795 17.58490932 -1.68359375 15.390625 C-1.70030624 14.7113092 -1.71701874 14.03199341 -1.73423767 13.33209229 C-1.81650575 10.69079042 -1.93678983 8.24381432 -2.60180664 5.67871094 C-3 4 -3 4 -1.6875 1.75 C-1.130625 1.1725 -0.57375 0.595 0 0 Z " fill="#574E4C" transform="translate(344,165)"/>
<path d="M0 0 C3.76687864 1.88343932 4.79421646 2.69132469 7 6 C6.67 6.66 6.34 7.32 6 8 C5.01 7.34 4.02 6.68 3 6 C2.67 15.24 2.34 24.48 2 34 C1.67 34 1.34 34 1 34 C0.67 22.78 0.34 11.56 0 0 Z " fill="#59514F" transform="translate(279,171)"/>
<path d="M0 0 C2 3 2 3 2 5 C-0.296537 6.1482685 -1.58313167 6.11561175 -4.1328125 6.09765625 C-4.93847656 6.09443359 -5.74414062 6.09121094 -6.57421875 6.08789062 C-7.41597656 6.07951172 -8.25773437 6.07113281 -9.125 6.0625 C-9.97449219 6.05798828 -10.82398437 6.05347656 -11.69921875 6.04882812 C-13.79950909 6.03702874 -15.8997633 6.01909306 -18 6 C-18.66 4.68 -19.32 3.36 -20 2 C-19.01 2 -18.02 2 -17 2 C-17 2.66 -17 3.32 -17 4 C-11.39 4 -5.78 4 0 4 C0 2.68 0 1.36 0 0 Z " fill="#7B7473" transform="translate(131,157)"/>
<path d="M0 0 C2 2 2 2 3 5 C3.33 4.67 3.66 4.34 4 4 C5.66617115 3.95936168 7.33388095 3.957279 9 4 C9 2.68 9 1.36 9 0 C9.66 0 10.32 0 11 0 C10.67 2.31 10.34 4.62 10 7 C7.36 7 4.72 7 2 7 C0.5393715 4.35261084 0 3.10551666 0 0 Z " fill="#3B322F" transform="translate(105,244)"/>
<path d="M0 0 C1 4 1 4 0 8 C5.94 8 11.88 8 18 8 C18 8.33 18 8.66 18 9 C11.07 9 4.14 9 -3 9 C-2.01 6.03 -1.02 3.06 0 0 Z " fill="#696260" transform="translate(211,197)"/>
<path d="M0 0 C0.78375 0.04125 1.5675 0.0825 2.375 0.125 C-2.17045455 4.9229798 -2.17045455 4.9229798 -4.875 6.125 C-6.92777024 7.02774438 -6.92777024 7.02774438 -7.375 9.75 C-7.4575 10.53375 -7.54 11.3175 -7.625 12.125 C-7.955 11.135 -8.285 10.145 -8.625 9.125 C-4.08133562 0.19434932 -4.08133562 0.19434932 0 0 Z " fill="#3B312E" transform="translate(56.625,217.875)"/>
<path d="M0 0 C0.66 0.33 1.32 0.66 2 1 C0.90344712 2.31886772 -0.20253423 3.62990057 -1.3125 4.9375 C-1.92738281 5.66839844 -2.54226562 6.39929688 -3.17578125 7.15234375 C-5 9 -5 9 -8 10 C-6.5682479 4.98886765 -4.01554307 3.05530451 0 0 Z " fill="#372D2B" transform="translate(88,145)"/>
<path d="M0 0 C0.33 1.32 0.66 2.64 1 4 C4.3 3.67 7.6 3.34 11 3 C10.67 3.99 10.34 4.98 10 6 C6.37 6 2.74 6 -1 6 C-0.67 4.02 -0.34 2.04 0 0 Z " fill="#483F3C" transform="translate(232,245)"/>
<path d="M0 0 C5.73783544 0.44137196 10.29517116 2.82052619 15 6 C15.33 6.66 15.66 7.32 16 8 C11.25 7.125 11.25 7.125 9 6 C9 5.34 9 4.68 9 4 C6.03 3.01 3.06 2.02 0 1 C0 0.67 0 0.34 0 0 Z " fill="#453B39" transform="translate(114,167)"/>
<path d="M0 0 C0.33 0.66 0.66 1.32 1 2 C-1.31 4.64 -3.62 7.28 -6 10 C-6.66 9.67 -7.32 9.34 -8 9 C-6.38405168 6.95880212 -4.7143618 4.95927063 -3 3 C-2.34 3 -1.68 3 -1 3 C-0.67 2.01 -0.34 1.02 0 0 Z " fill="#3B312E" transform="translate(132,193)"/>
<path d="M0 0 C1.32 0.33 2.64 0.66 4 1 C1.03 3.475 1.03 3.475 -2 6 C-2.66 5.67 -3.32 5.34 -4 5 C-2.68 3.35 -1.36 1.7 0 0 Z " fill="#372D2B" transform="translate(16,149)"/>
<path d="M0 0 C1.32 0.33 2.64 0.66 4 1 C4 3.64 4 6.28 4 9 C1.3144406 6.3144406 0.93950026 3.62378672 0 0 Z " fill="#4C4341" transform="translate(248,228)"/>
<path d="M0 0 C2.95183101 2.95183101 3.08663988 5.95511947 4 10 C3.34 9.67 2.68 9.34 2 9 C2 8.34 2 7.68 2 7 C1.34 7 0.68 7 0 7 C0 4.69 0 2.38 0 0 Z " fill="#4E4644" transform="translate(258,226)"/>
</svg>
